<?xml version="1.0" encoding="utf-8"?>
<!-- Generator: Adobe Illustrator 25.1.0, SVG Export Plug-In . SVG Version: 6.00 Build 0)  -->
<svg version="1.1" id="Financial_Security__x2013__Independent_Network"
	 xmlns="http://www.w3.org/2000/svg" xmlns:xlink="http://www.w3.org/1999/xlink" x="0px" y="0px" width="162.08px" height="62px" viewBox="0 0 150.95 54.69"
	 style="enable-background:new 0 0 150.95 54.69;" xml:space="preserve">
<style type="text/css">
	.st0{fill:#00874E;}
</style>
<g>
	<path d="M35.69,31.22h5.68v1.52h-4.01v2.28h3.34v1.52h-3.34v3.25h-1.68V31.22z"/>
	<path d="M42.23,32.1c0-0.53,0.45-0.97,0.98-0.97c0.54,0,0.99,0.43,0.99,0.97c0,0.53-0.45,0.97-0.99,0.97
		C42.68,33.06,42.23,32.63,42.23,32.1z M42.41,33.9H44v5.89h-1.58V33.9z"/>
	<path d="M51,36.29v3.5h-1.58v-3.1c0-1.12-0.4-1.47-1.13-1.47c-0.8,0-1.34,0.56-1.34,1.6v2.97h-1.58V33.9h1.58v0.76h0.02
		c0.48-0.57,1.16-0.86,1.88-0.86C50.12,33.8,51,34.47,51,36.29z"/>
	<path d="M57.08,36.29v3.5h-1.46l-0.06-0.52h-0.02c-0.4,0.33-0.96,0.62-1.64,0.62c-1.33,0-1.97-0.78-1.97-1.86
		c0-1.19,0.76-1.91,2.37-1.92h1.23c-0.05-0.68-0.4-0.97-1.01-0.97c-0.52,0-1.13,0.16-1.64,0.41l-0.53-1.21
		c0.39-0.21,1.28-0.54,2.34-0.54C56.15,33.8,57.08,34.5,57.08,36.29z M55.53,37.85v-0.64l-1.06,0.01c-0.62,0-0.98,0.22-0.98,0.7
		c0,0.39,0.28,0.66,0.8,0.66C55.08,38.59,55.53,38.11,55.53,37.85z"/>
	<path d="M63.98,36.29v3.5H62.4v-3.1c0-1.12-0.4-1.47-1.13-1.47c-0.8,0-1.34,0.56-1.34,1.6v2.97h-1.58V33.9h1.58v0.76h0.02
		c0.48-0.57,1.16-0.86,1.88-0.86C63.1,33.8,63.98,34.47,63.98,36.29z"/>
	<path d="M64.93,36.84c0-1.81,1.28-3.04,3.1-3.04c0.94,0,1.91,0.37,2.5,1.12l-1.06,0.92c-0.31-0.36-0.77-0.63-1.38-0.63
		c-0.94,0-1.57,0.66-1.57,1.62c0,0.97,0.65,1.64,1.58,1.64c0.63,0,1.1-0.29,1.38-0.6l1.07,0.95c-0.51,0.59-1.41,1.06-2.59,1.06
		C66.21,39.88,64.93,38.65,64.93,36.84z"/>
	<path d="M71.19,32.1c0-0.53,0.45-0.97,0.98-0.97c0.54,0,0.99,0.43,0.99,0.97c0,0.53-0.45,0.97-0.99,0.97
		C71.63,33.06,71.19,32.63,71.19,32.1z M71.37,33.9h1.58v5.89h-1.58V33.9z"/>
	<path d="M79.1,36.29v3.5h-1.46l-0.06-0.52h-0.02c-0.4,0.33-0.96,0.62-1.64,0.62c-1.33,0-1.97-0.78-1.97-1.86
		c0-1.19,0.76-1.91,2.37-1.92h1.23c-0.05-0.68-0.4-0.97-1.01-0.97c-0.52,0-1.13,0.16-1.64,0.41l-0.53-1.21
		c0.39-0.21,1.28-0.54,2.34-0.54C78.17,33.8,79.1,34.5,79.1,36.29z M77.55,37.85v-0.64l-1.06,0.01c-0.62,0-0.98,0.22-0.98,0.7
		c0,0.39,0.28,0.66,0.8,0.66C77.1,38.59,77.55,38.11,77.55,37.85z"/>
	<path d="M80.41,30.9h1.58v8.88h-1.58V30.9z"/>
	<path d="M85.94,38.53l1.01-1.26c0.64,0.75,1.46,1.07,2.14,1.07c0.82,0,1.23-0.37,1.23-0.9c0-0.63-0.46-0.86-1.5-1.21
		c-1.29-0.46-2.58-1.06-2.58-2.68c0-1.38,1.21-2.43,2.75-2.45c1.06-0.01,2.05,0.39,2.88,1.09l-0.98,1.28
		c-0.71-0.59-1.34-0.84-1.87-0.84c-0.59,0-1.03,0.31-1.03,0.86c-0.01,0.53,0.46,0.76,1.44,1.15c1.48,0.58,2.66,0.97,2.66,2.62
		c0,1.87-1.63,2.63-3.03,2.63C87.96,39.88,86.84,39.46,85.94,38.53z"/>
	<path d="M98.66,37.35h-4.14c0.19,0.7,0.75,1.13,1.51,1.13c0.63,0.01,1.09-0.27,1.41-0.66l1.03,0.95c-0.51,0.64-1.36,1.11-2.55,1.11
		c-1.73,0-3.03-1.21-3.03-3.05c0-1.79,1.24-3.03,2.92-3.03c1.73,0,2.88,1.25,2.88,2.98C98.69,36.97,98.69,37.25,98.66,37.35z
		 M94.53,36.21h2.6c-0.16-0.62-0.58-1.03-1.27-1.03C95.22,35.19,94.71,35.54,94.53,36.21z"/>
	<path d="M99.4,36.84c0-1.81,1.28-3.04,3.1-3.04c0.94,0,1.91,0.37,2.5,1.12l-1.06,0.92c-0.31-0.36-0.77-0.63-1.38-0.63
		c-0.94,0-1.57,0.66-1.57,1.62c0,0.97,0.65,1.64,1.58,1.64c0.63,0,1.1-0.29,1.38-0.6l1.07,0.95c-0.51,0.59-1.41,1.06-2.59,1.06
		C100.68,39.88,99.4,38.65,99.4,36.84z"/>
	<path d="M111.26,33.9v5.89h-1.58v-0.72h-0.02c-0.45,0.54-1.09,0.82-1.75,0.82c-1.27,0-2.16-0.64-2.16-2.44V33.9h1.57v3.13
		c0,1.09,0.33,1.45,1.06,1.45c0.69,0,1.3-0.58,1.3-1.71V33.9H111.26z"/>
	<path d="M116.08,33.81v1.71c-0.16-0.01-0.33-0.01-0.41-0.01c-0.98,0-1.51,0.66-1.51,1.53v2.74h-1.58V33.9h1.58v0.87h0.01
		c0.45-0.63,1.09-0.97,1.79-0.97C116.01,33.8,116.06,33.8,116.08,33.81z"/>
	<path d="M116.68,32.1c0-0.53,0.45-0.97,0.98-0.97c0.54,0,0.99,0.43,0.99,0.97c0,0.53-0.45,0.97-0.99,0.97
		C117.12,33.06,116.68,32.63,116.68,32.1z M116.86,33.9h1.58v5.89h-1.58V33.9z"/>
	<path d="M119.96,37.93V35.2h-0.7v-1.3h0.7v-1.93l1.57-0.17v2.1h1.61v1.3h-1.61v2.51c0,0.51,0.16,0.75,0.52,0.75
		c0.19,0,0.48-0.07,0.75-0.21l0.41,1.27c-0.39,0.21-0.77,0.36-1.57,0.36C120.63,39.88,119.96,39.25,119.96,37.93z"/>
	<path d="M129.75,33.9l-3.17,8.28h-1.62l1.04-2.75l-2.34-5.53h1.64l1.45,3.65h0.01l1.35-3.65H129.75z"/>
</g>
<g>
	<path d="M35.82,47.09H37v5.95h-1.18V47.09z"/>
	<path d="M41.99,50.6v2.43h-1.1v-2.15c0-0.78-0.28-1.02-0.79-1.02c-0.55,0-0.93,0.38-0.93,1.11v2.06h-1.1v-4.09h1.1v0.53h0.02
		c0.33-0.39,0.8-0.59,1.31-0.59C41.38,48.88,41.99,49.35,41.99,50.6z"/>
	<path d="M46.93,46.87v6.17h-1.05v-0.49h-0.02c-0.29,0.36-0.71,0.56-1.26,0.56c-1.13,0-1.96-0.84-1.96-2.1
		c0-1.24,0.83-2.12,1.93-2.12c0.5,0,0.93,0.18,1.23,0.53h0.02v-2.54H46.93z M45.89,51.01c0-0.65-0.45-1.15-1.08-1.15
		c-0.59,0-1.05,0.44-1.05,1.15c0,0.66,0.44,1.11,1.05,1.11C45.41,52.12,45.89,51.68,45.89,51.01z"/>
	<path d="M51.63,51.34h-2.87c0.13,0.49,0.52,0.79,1.05,0.79c0.44,0.01,0.75-0.18,0.98-0.46l0.71,0.66
		c-0.35,0.44-0.95,0.77-1.77,0.77c-1.2,0-2.1-0.84-2.1-2.12c0-1.24,0.86-2.1,2.03-2.1c1.2,0,2,0.87,2,2.07
		C51.66,51.08,51.66,51.27,51.63,51.34z M48.77,50.55h1.8c-0.11-0.43-0.4-0.71-0.88-0.71C49.25,49.84,48.9,50.08,48.77,50.55z"/>
	<path d="M56.64,51c0,1.26-0.82,2.1-1.96,2.1c-0.52,0-0.92-0.19-1.21-0.53h-0.02v2.12h-1.1v-5.75h1.1v0.47h0.02
		c0.31-0.35,0.74-0.54,1.24-0.54C55.81,48.88,56.64,49.76,56.64,51z M55.52,51.01c0-0.7-0.46-1.15-1.05-1.15
		c-0.63,0-1.06,0.49-1.06,1.15c0,0.67,0.47,1.11,1.06,1.11C55.1,52.12,55.52,51.67,55.52,51.01z"/>
	<path d="M61.13,51.34h-2.87c0.13,0.49,0.52,0.79,1.05,0.79c0.44,0.01,0.75-0.18,0.98-0.46L61,52.33c-0.35,0.44-0.95,0.77-1.77,0.77
		c-1.2,0-2.1-0.84-2.1-2.12c0-1.24,0.86-2.1,2.03-2.1c1.2,0,2,0.87,2,2.07C61.15,51.08,61.15,51.27,61.13,51.34z M58.27,50.55h1.8
		c-0.11-0.43-0.4-0.71-0.88-0.71C58.74,49.84,58.39,50.08,58.27,50.55z"/>
	<path d="M65.76,50.6v2.43h-1.1v-2.15c0-0.78-0.28-1.02-0.79-1.02c-0.55,0-0.93,0.38-0.93,1.11v2.06h-1.1v-4.09h1.1v0.53h0.02
		c0.33-0.39,0.8-0.59,1.31-0.59C65.15,48.88,65.76,49.35,65.76,50.6z"/>
	<path d="M70.7,46.87v6.17h-1.05v-0.49h-0.02c-0.29,0.36-0.71,0.56-1.26,0.56c-1.13,0-1.96-0.84-1.96-2.1
		c0-1.24,0.83-2.12,1.93-2.12c0.5,0,0.93,0.18,1.23,0.53h0.03v-2.54H70.7z M69.66,51.01c0-0.65-0.45-1.15-1.08-1.15
		c-0.59,0-1.05,0.44-1.05,1.15c0,0.66,0.44,1.11,1.05,1.11C69.19,52.12,69.66,51.68,69.66,51.01z"/>
	<path d="M75.41,51.34h-2.87c0.13,0.49,0.52,0.79,1.05,0.79c0.44,0.01,0.75-0.18,0.98-0.46l0.71,0.66
		c-0.35,0.44-0.95,0.77-1.77,0.77c-1.2,0-2.1-0.84-2.1-2.12c0-1.24,0.86-2.1,2.03-2.1c1.2,0,2,0.87,2,2.07
		C75.44,51.08,75.44,51.27,75.41,51.34z M72.55,50.55h1.8c-0.11-0.43-0.4-0.71-0.88-0.71C73.02,49.84,72.67,50.08,72.55,50.55z"/>
	<path d="M80.05,50.6v2.43h-1.1v-2.15c0-0.78-0.28-1.02-0.79-1.02c-0.55,0-0.93,0.38-0.93,1.11v2.06h-1.1v-4.09h1.1v0.53h0.02
		c0.33-0.39,0.8-0.59,1.31-0.59C79.43,48.88,80.05,49.35,80.05,50.6z"/>
	<path d="M80.99,51.74v-1.89h-0.49v-0.9h0.49V47.6l1.09-0.12v1.46h1.11v0.9h-1.11v1.74c0,0.35,0.11,0.52,0.36,0.52
		c0.13,0,0.33-0.05,0.52-0.14l0.28,0.88c-0.27,0.14-0.54,0.25-1.09,0.25C81.45,53.1,80.99,52.67,80.99,51.74z"/>
	<path d="M90.71,47.09v5.95H89.5l-2.62-3.95h-0.02v3.95h-1.17v-5.95h1.17l2.66,4.02h0.01v-4.02H90.71z"/>
	<path d="M95.56,51.34h-2.87c0.13,0.49,0.52,0.79,1.05,0.79c0.44,0.01,0.75-0.18,0.98-0.46l0.71,0.66
		c-0.35,0.44-0.95,0.77-1.77,0.77c-1.2,0-2.1-0.84-2.1-2.12c0-1.24,0.86-2.1,2.03-2.1c1.2,0,2,0.87,2,2.07
		C95.59,51.08,95.59,51.27,95.56,51.34z M92.7,50.55h1.8c-0.11-0.43-0.4-0.71-0.88-0.71C93.18,49.84,92.82,50.08,92.7,50.55z"/>
	<path d="M96.37,51.74v-1.89h-0.49v-0.9h0.49V47.6l1.09-0.12v1.46h1.11v0.9h-1.11v1.74c0,0.35,0.11,0.52,0.36,0.52
		c0.13,0,0.33-0.05,0.52-0.14l0.28,0.88c-0.27,0.14-0.54,0.25-1.09,0.25C96.83,53.1,96.37,52.67,96.37,51.74z"/>
	<path d="M105.05,48.95l-1.39,4.09h-0.95l-0.72-2.52h-0.02l-0.72,2.52h-0.94l-1.4-4.09h1.1l0.8,2.49h0.02l0.71-2.49h0.88l0.72,2.49
		h0.02l0.8-2.49H105.05z"/>
	<path d="M105.22,50.99c0-1.22,0.87-2.11,2.17-2.11c1.27,0,2.18,0.85,2.18,2.11c0,1.26-0.9,2.11-2.18,2.11
		C106.09,53.1,105.22,52.21,105.22,50.99z M108.45,50.99c0-0.67-0.45-1.13-1.06-1.13c-0.64,0-1.06,0.49-1.06,1.13
		c0,0.64,0.44,1.13,1.06,1.13C107.98,52.12,108.45,51.65,108.45,50.99z"/>
	<path d="M112.69,48.89v1.19c-0.11-0.01-0.23-0.01-0.29-0.01c-0.68,0-1.05,0.46-1.05,1.06v1.9h-1.1v-4.09h1.1v0.6h0.01
		c0.31-0.44,0.75-0.67,1.24-0.67C112.64,48.88,112.68,48.88,112.69,48.89z"/>
	<path d="M114.86,51.41l-0.57,0.64v0.98h-1.1v-6.17h1.1v3.73h0.01l1.47-1.65h1.28l-1.44,1.62l1.47,2.46h-1.22l-0.97-1.62H114.86z"/>
</g>
<g>
	<rect x="34.98" y="43.27" width="108.02" height="0.35"/>
</g>
<g>
	<path class="st0" d="M41.66,6.86l-5.91,0v17.13h5.98c5.36,0,8.82-3.35,8.82-8.54C50.55,10.31,46.98,6.86,41.66,6.86z M41.49,21.08
		h-2.25V9.78h2.41c3.15,0,5.44,2.38,5.44,5.67C47.09,18.76,44.79,21.08,41.49,21.08z"/>
	<path class="st0" d="M0,7.71v15.42l13.35,7.71l13.35-7.71V7.71L13.35,0L0,7.71z M23.09,9.8v11.24l-9.74,5.62l-9.74-5.62V9.8
		l9.74-5.62L23.09,9.8z"/>
	<path class="st0" d="M118.9,8.39c0,0.99-0.8,1.79-1.79,1.79c-0.99,0-1.79-0.8-1.79-1.79c0-0.99,0.8-1.79,1.79-1.79
		C118.1,6.6,118.9,7.4,118.9,8.39z M118.64,12.25h-3.06v11.74h3.06V12.25z"/>
	<path class="st0" d="M70.25,16.72c-1.31-0.5-1.72-0.75-1.72-1.3c0-0.53,0.42-0.84,1.13-0.84c1.17,0,2.04,0.63,2.81,1.32l1.78-1.9
		c-1.14-1.23-2.84-1.96-4.55-1.96c-2.48,0-4.21,1.44-4.21,3.5c0,2.35,1.81,3.26,3.59,3.85c0.21,0.07,0.41,0.13,0.59,0.19
		c1.01,0.32,1.57,0.49,1.57,1.1c0,0.34-0.19,0.91-1.43,0.91c-1.15,0-2.29-0.56-2.92-1.43l-1.8,1.92c1.25,1.42,2.78,2.1,4.68,2.1
		c2.8,0,4.54-1.36,4.54-3.55C74.3,18.44,72.77,17.69,70.25,16.72z"/>
	<path class="st0" d="M138.95,16.72c-1.31-0.5-1.72-0.75-1.72-1.3c0-0.53,0.42-0.84,1.13-0.84c1.17,0,2.04,0.63,2.81,1.32l1.78-1.9
		c-1.14-1.23-2.84-1.96-4.55-1.96c-2.48,0-4.21,1.44-4.21,3.5c0,2.35,1.81,3.26,3.59,3.85c0.21,0.07,0.41,0.13,0.59,0.19
		c1.01,0.32,1.57,0.49,1.57,1.1c0,0.34-0.19,0.91-1.43,0.91c-1.15,0-2.29-0.56-2.92-1.43l-1.8,1.92c1.25,1.42,2.78,2.1,4.68,2.1
		c2.8,0,4.54-1.36,4.54-3.55C143,18.44,141.47,17.69,138.95,16.72z"/>
	<path class="st0" d="M79.77,8.39c0,0.99-0.8,1.79-1.79,1.79c-0.99,0-1.79-0.8-1.79-1.79s0.8-1.79,1.79-1.79
		C78.96,6.6,79.77,7.4,79.77,8.39z M76.13,28.54c2.02,0,3.38-1.39,3.38-4.15V12.25h-3.07v12.02c0,1.07-0.44,1.59-1.17,1.59
		c-0.36,0-0.7-0.1-1.02-0.29l-0.52,2.56C74.49,28.43,75.11,28.54,76.13,28.54L76.13,28.54z"/>
	<path class="st0" d="M89.46,12.9c-0.82-0.54-1.96-0.85-3.14-0.85c-1.93,0-3.52,0.7-4.47,1.96c0.21,0.23,1.53,1.63,1.79,1.89
		c0.48-0.67,0.94-1.02,1.62-1.23c0.25-0.08,0.53-0.12,0.82-0.12c0.37,0,0.75,0.07,1.03,0.19c0.73,0.31,1.14,0.91,1.14,1.65l0,0.77
		c-0.08-0.04-1.04-0.45-2.6-0.45c-2.47,0-4.34,1.63-4.34,3.8c0,2.14,1.6,3.69,3.81,3.69c1.38,0,2.23-0.61,2.99-1.23h0.13v1.03h2.91
		v-7.68C91.16,14.79,90.59,13.64,89.46,12.9z M88.25,20.15c0,0.6-1.25,1.55-2.73,1.55c-0.91,0-1.51-0.6-1.51-1.35
		c0-0.49,0.27-1.4,1.86-1.4c1.17,0,2.38,0.37,2.38,0.37V20.15z"/>
	<path class="st0" d="M96.86,13.62h-0.08v-1.38h-3.12v11.74h3.12l0-5.29c0-2.12,1.05-3.56,3.7-3.56v-3.1
		C98.89,12.07,97.62,12.55,96.86,13.62z"/>
	<path class="st0" d="M110.02,22.95h0.14v1.03h2.91l0-17.13h-3.07v6.36h-0.12c-0.61-0.73-2.05-1.17-3.03-1.17
		c-3.72,0-5.73,3.13-5.73,6.07c0,2.24,0.97,3.66,1.78,4.45c1.05,1.03,2.49,1.62,3.95,1.62C107.56,24.19,108.67,23.98,110.02,22.95z
		 M107.04,21.42c-1.68,0-3-1.45-3-3.3c0-1.86,1.31-3.31,2.99-3.31c1.86,0,3.01,1.72,3.01,3.31
		C110.04,19.93,108.69,21.42,107.04,21.42z"/>
	<path class="st0" d="M124.33,13.21h-0.12v-0.96h-3.07v11.74h3.07v-6.11c0-2.7,1.68-3.1,2.67-3.1c1.77,0,2.4,1.47,2.4,2.84v6.37
		h3.07v-6.33c0-3.51-1.88-5.61-5.03-5.61C125.15,12.04,124.35,13.17,124.33,13.21z"/>
	<path class="st0" d="M63.81,17.99c-0.02-3.51-2.38-5.94-5.76-5.94c-3.37,0-5.82,2.55-5.82,6.06c0,3.58,2.49,6.08,6.05,6.08
		c2.08,0,3.89-0.77,4.97-2.1c-0.22-0.24-1.58-1.68-1.83-1.92c-0.56,0.64-1.61,1.32-2.9,1.32c-1.55,0-2.73-0.88-3.11-2.38h8.33
		C63.79,18.87,63.81,18.36,63.81,17.99z M55.42,16.91c0.35-1.41,1.37-2.18,2.74-2.18c1.34,0,2.28,0.75,2.63,2.18H55.42z"/>
</g>
<g>
	<path class="st0" d="M148.33,14.6c0,1.16-0.94,2.14-2.13,2.14s-2.13-0.97-2.13-2.14c0-1.16,0.94-2.15,2.14-2.15
		C147.4,12.44,148.33,13.43,148.33,14.6z M147.91,14.6c0-0.95-0.74-1.74-1.71-1.74c-0.98,0-1.73,0.79-1.73,1.74
		c0,0.95,0.75,1.74,1.72,1.74C147.16,16.34,147.91,15.54,147.91,14.6z M146.53,14.84l0.61,0.88h-0.43l-0.57-0.84h-0.33v0.84h-0.36
		v-2.27h0.82c0.53,0,0.76,0.31,0.76,0.72C147.04,14.54,146.84,14.76,146.53,14.84z M145.82,14.55h0.38c0.34,0,0.46-0.17,0.46-0.39
		c0-0.23-0.16-0.39-0.43-0.39h-0.41V14.55z"/>
</g>
</svg>
